# xmcd
#
# Track frame offsets:
#	150
#	2850
#	5790
#	10791
#	45056
#	75769
#	86236
#	117525
#	143569
#	172233
#	194872
#	221655
#	249502
#	276060
#	292430
#	316498
#	349582
#	354420
#
# Disc length: 4788 seconds
#
# Revision: 1
# Processed by: cddbd v1.4PL0 Copyright (c) Steve Scherf et al.
# Submitted via: audiograbber 1.82.02
#
DISCID=0c12b212
DTITLE=niranjan - ram
DYEAR=2000
DGENRE=18
TTITLE0=Data Trackheuyguy
TTITLE1=Data Track
TTITLE2=Data Track
TTITLE3=Data Track
TTITLE4=Data Track
TTITLE5=Data Track
TTITLE6=Data Track
TTITLE7=Data Track
TTITLE8=Data Track
TTITLE9=Data Track
TTITLE10=Data Track
TTITLE11=Data Track
TTITLE12=Data Track
TTITLE13=Data Track
TTITLE14=Data Track
TTITLE15=Data Track
TTITLE16=Data Track
TTITLE17=Data Track
EXTD=hoiiiiiiiiiiiiiiiiiiiiiiiiiiiii
EXTT0=hiiiiiiiiiiii
EXTT1=
EXTT2=
EXTT3=
EXTT4=
EXTT5=
EXTT6=
EXTT7=
EXTT8=
EXTT9=
EXTT10=
EXTT11=
EXTT12=
EXTT13=
EXTT14=
EXTT15=
EXTT16=
EXTT17=
PLAYORDER=
